Coordinates
version=1
nRows=34
nColumns=19
inDegrees=yes

Units are S.I. units (second, meters, Newtons, ...)
If the header above contains a line with 'inDegrees', this indicates whether rotational values are in degrees (yes) or radians (no).

endheader
time	pelvis_tilt	pelvis_list	pelvis_rotation	pelvis_tx	pelvis_ty	pelvis_tz	hip_flexion_r	hip_adduction_r	hip_rotation_r	knee_angle_r	knee_angle_r_beta	ankle_angle_r	hip_flexion_l	hip_adduction_l	hip_rotation_l	knee_angle_l	knee_angle_l_beta	ankle_angle_l
     11.90000000	     -4.32876197	     -1.44010156	     -4.16409429	      2.27153156	      0.91212332	      1.06286064	     29.99132563	      5.34947783	     -4.69515846	     24.97364031	      0.43587225	      0.16452261	    -16.82847338	     -3.92921667	     -8.21414586	     84.74920026	      1.47915258	     -8.53596469
     11.90666667	     -3.76480843	     -2.05484982	     -4.53421844	      2.27125639	      0.90665252	      1.06292150	     29.36238490	      6.04465087	     -4.23995687	     27.49317920	      0.47984650	      1.43652229	    -16.25749758	     -4.57792539	     -8.25499476	     88.56521318	      1.54575457	     -8.37609848
     11.91333333	     -4.22584094	     -2.18570690	     -4.73948389	      2.27044598	      0.89993373	      1.06276121	     30.02925388	      6.28474145	     -3.68950144	     30.45498922	      0.53153984	      3.07609379	    -14.16678185	     -4.68557351	     -7.74837877	     92.61074492	      1.61636242	     -8.13139884
     11.92000000	     -4.46462460	     -2.47575794	     -4.95988773	      2.26953950	      0.89355103	      1.06266486	     30.26577646	      6.69627571	     -3.25871125	     33.22969632	      0.57996761	      5.08296157	    -12.25153473	     -5.03835601	     -7.37216941	     96.49351404	      1.68412953	     -7.86619293
     11.92666667	     -4.08141797	     -3.12794501	     -5.28217407	      2.26852124	      0.88810289	      1.06263172	     29.54485282	      7.49019757	     -2.90833618	     35.61965223	      0.62168021	      7.39319866	    -11.03466838	     -5.82030741	     -7.24696143	    100.11068811	      1.74726112	     -7.63117297
     11.93333333	     -5.17774269	     -3.08207916	     -5.36800521	      2.26668798	      0.88142792	      1.06229125	     30.60245444	      7.59096725	     -2.54141348	     38.27402052	      0.66800768	      9.72049977	     -7.60396767	     -5.88325069	     -6.47369116	    103.98609060	      1.81489966	     -7.35022848
     11.94000000	     -5.60273275	     -3.36174799	     -5.53332781	      2.26471306	      0.87606994	      1.06201878	     30.60287055	      8.00235296	     -2.25838985	     40.41113734	      0.70530740	     12.21026001	     -4.88123337	     -6.31494147	     -5.89354382	    107.51353929	      1.87646525	     -7.18922359
     11.94666667	     -6.05584337	     -3.60929998	     -5.65113100	      2.26236819	      0.87139892	      1.06161734	     30.45581463	      8.34066342	     -2.03399771	     42.23065528	      0.73706398	     14.67169280	     -1.89035382	     -6.72554977	     -5.20120818	    110.83760091	      1.93448107	     -7.07401754
     11.95333333	     -6.55432708	     -3.76170181	     -5.76009937	      2.25967853	      0.86750456	      1.06114010	     30.16204587	      8.58075305	     -1.73421545	     43.68105717	      0.76237827	     17.02485125	      1.38753172	     -6.99442213	     -4.42160640	    113.89324479	      1.98781212	     -7.00166398
     11.96000000	     -6.96777715	     -3.88558960	     -5.80004041	      2.25674423	      0.86456505	      1.06046456	     29.56840555	      8.70804238	     -1.50260455	     44.73218536	      0.78072392	     19.17025336	      4.77745017	     -7.20247122	     -3.55289761	    116.61037864	      2.03523505	     -7.00274790
     11.96666667	     -6.60039513	     -3.98821917	     -6.10593548	      2.25403744	      0.86353057	      1.05999728	     27.80943382	      8.88335732	     -0.85969860	     45.26470148	      0.79001808	     21.16502225	      7.23240713	     -7.31200557	     -3.08754287	    118.65193050	      2.07086685	     -7.00801038
     11.97333333	     -6.21766827	     -3.71219419	     -6.57359597	      2.25270684	      0.86413235	      1.05971569	     25.64094039	      8.64910511	      0.01484162	     45.21932330	      0.78922608	     22.65714959	      9.51554919	     -6.93509723	     -2.95729663	    119.72731867	      2.08963592	     -7.16215873
     11.98000000	     -4.94634159	     -2.96501216	     -7.35086351	      2.25205515	      0.86689723	      1.05973743	     22.31740656	      7.81894965	      1.28409301	     44.83014366	      0.78243361	     24.01342245	     10.62425903	     -5.95989149	     -3.51490366	    119.86518777	      2.09204219	     -7.41879291
     11.98666667	     -4.45538382	     -2.14927272	     -7.86000729	      2.25090095	      0.86955793	      1.05961196	     19.73253262	      6.85683880	      2.37513440	     44.03173913	      0.76849882	     24.83649390	     12.85982955	     -5.00833448	     -3.78189115	    119.90357255	      2.09271213	     -7.52846305
     11.99333333	     -3.56098363	     -1.68401577	     -7.78152364	      2.24889624	      0.87301960	      1.05896821	     16.55192280	      5.95645223	      2.75828192	     42.77072689	      0.74649001	     25.17977845	     14.87366907	     -4.38050005	     -3.48416987	    119.91139667	      2.09284868	     -7.44991705
     12.00000000	     -3.73812433	     -1.14486744	     -7.41821783	      2.24638808	      0.87563770	      1.05815443	     14.55103128	      5.07258716	      2.83584998	     41.39789362	      0.72252955	     25.00551813	     18.28319994	     -3.75373036	     -2.90148772	    119.90862709	      2.09280034	     -7.30291802
     12.00666667	     -4.60933436	     -0.69925738	     -6.78834444	      2.24337149	      0.87751889	      1.05702935	     13.33814552	      4.33968252	      2.61004247	     40.00994952	      0.69830535	     24.41785465	     22.58595237	     -3.15962564	     -2.04554371	    119.89437159	      2.09255154	     -7.04139847
     12.01333333	     -6.06019694	     -0.62034914	     -5.86659981	      2.24012204	      0.87877701	      1.05563589	     12.67870966	      4.03501183	      1.99413491	     38.48069382	      0.67161481	     23.30820067	     27.56993697	     -2.84858876	     -0.81662500	    119.84812464	      2.09174438	     -6.69480129
     12.02000000	     -7.57167113	     -0.97253448	     -4.77591046	      2.23698121	      0.87995252	      1.05404801	     11.98028307	      4.16502070	      1.08658741	     36.75743994	      0.64153835	     21.67957097	     32.53240001	     -2.76306168	      0.69907332	    119.62591848	      2.08786615	     -6.34377830
     12.02666667	     -8.45756196	     -0.91788778	     -4.18090065	      2.23550120	      0.88302394	      1.05312975	     10.42981351	      3.92691471	      0.74794921	     34.69444491	      0.60553230	     19.55019438	     36.11344119	     -2.33759287	      1.32221103	    118.36444804	      2.06584934	     -5.92559940
     12.03333333	     -8.60250926	     -0.43983050	     -3.86676396	      2.23568711	      0.88817899	      1.05275565	      7.84683609	      3.24259246	      0.69817623	     32.15111443	      0.56114281	     16.81659257	     38.21435219	     -1.63260245	      1.21480697	    116.13992215	      2.02702403	     -5.58733529
     12.04000000	     -8.62099105	      0.10860557	     -3.60795904	      2.23651015	      0.89397980	      1.05248965	      5.07133275	      2.49102021	      0.63078917	     29.39409288	      0.51302370	     13.58100012	     39.82862127	     -0.91130304	      0.92072811	    113.47375092	      1.98049057	     -5.19279824
     12.04666667	     -8.84685091	      0.58749348	     -3.29673191	      2.23772256	      0.89974712	      1.05211910	      2.51887904	      1.83138492	      0.42631579	     26.53223320	      0.46307483	      9.87380874	     41.45552839	     -0.25687627	      0.66347646	    110.55555688	      1.92955847	     -4.84626410
     12.05333333	     -8.80305696	      1.19029385	     -3.10840843	      2.23941454	      0.90605879	      1.05192094	     -0.29420832	      1.03476195	      0.23506284	     23.60026727	      0.41190237	      5.91470606	     42.45691660	      0.39001129	      0.14409299	    107.26242256	      1.87208244	     -4.46630613
     12.06000000	     -8.94610926	      1.73792252	     -2.87992357	      2.24136852	      0.91210861	      1.05165820	     -2.82442386	      0.32108950	     -0.10554792	     20.75081926	      0.36217012	      1.83327763	     43.48085091	      0.96659505	     -0.34314165	    103.77612078	      1.81123499	     -4.13751239
     12.06666667	     -9.22197127	      2.24028418	     -2.64984941	      2.24353452	      0.91793405	      1.05135778	     -5.10670394	     -0.33265641	     -0.59076053	     18.03349532	      0.31474387	     -2.22760325	     44.44960799	      1.47535746	     -0.81965337	    100.08682397	      1.74684462	     -3.82195680
     12.07333333	     -9.35161407	      2.78093284	     -2.47873316	      2.24587713	      0.92374602	      1.05115846	     -7.41042699	     -1.02023488	     -1.18115634	     15.53874253	      0.27120222	     -6.00417930	     45.02945745	      1.90817378	     -1.44813175	     96.15591056	      1.67823723	     -3.47661631
     12.08000000	     -9.53719473	      3.25694460	     -2.30055103	      2.24833009	      0.92917139	      1.05101599	     -9.48913193	     -1.61801393	     -1.96185942	     13.38486919	      0.23361004	     -9.33897352	     45.49545361	      2.22006499	     -2.08779342	     92.06950420	      1.60691599	     -3.12814297
     12.08666667	     -9.82681063	      3.61364795	     -2.07731106	      2.25066341	      0.93411405	      1.05073940	    -11.23444410	     -2.06371934	     -2.90978164	     11.70037316	      0.20421004	    -12.14482007	     45.95193693	      2.46277230	     -2.63379341	     87.87250552	      1.53366454	     -2.78096369
     12.09333333	    -10.09084053	      3.88155542	     -1.85088819	      2.25300876	      0.93861703	      1.05057885	    -12.79218348	     -2.39402487	     -4.03804565	     10.53344587	      0.18384331	    -14.25349799	     46.21722148	      2.55703187	     -3.21800007	     83.53571325	      1.45797324	     -2.41422005
     12.10000000	    -10.30241493	      4.05146817	     -1.62113471	      2.25527559	      0.94271340	      1.05039653	    -14.19632027	     -2.61039586	     -5.27165232	      9.88217115	      0.17247642	    -15.70396768	     46.28236255	      2.54427257	     -3.81962886	     79.06847824	      1.38000528	     -2.03793428
     12.10666667	    -10.48560537	      4.08102783	     -1.34415634	      2.25736680	      0.94631363	      1.05015976	    -15.38604303	     -2.67512137	     -6.66805790	      9.84488106	      0.17182559	    -16.49545962	     46.20403190	      2.43193445	     -4.38254372	     74.50791636	      1.30040846	     -1.65078389
     12.11333333	    -10.61419827	      3.98574139	     -1.03061214	      2.25933849	      0.94942530	      1.04980820	    -16.44777111	     -2.61402075	     -8.12682350	     10.31894880	      0.18009963	    -16.72149734	     45.94871583	      2.23473303	     -4.95819746	     69.84633160	      1.21904846	     -1.27956065
     12.12000000	    -10.96980444	      3.71017600	     -0.55814141	      2.26102587	      0.95166186	      1.04911176	    -17.01357474	     -2.39076673	     -9.83179213	     11.45732002	      0.19996796	    -16.50321343	     45.89086166	      2.05905751	     -5.32953936	     65.14727161	      1.13703439	     -0.95572757
